<svg xmlns="http://www.w3.org/2000/svg" viewBox="0 0 500 200" width="100%" style="background: #0a0b10; border-radius: 8px;">
  <style>
    @keyframes blink-1 { 0%, 100% { fill: #1f2335; } 50% { fill: #ff9e64; filter: drop-shadow(0 0 2px #ff9e64); } }
    .light-1 { animation: blink-1 2.73s infinite; animation-delay: 0.41s; }
    @keyframes blink-2 { 0%, 100% { fill: #1f2335; } 50% { fill: #ff9e64; filter: drop-shadow(0 0 2px #ff9e64); } }
    .light-2 { animation: blink-2 2.15s infinite; animation-delay: 0.23s; }
    @keyframes blink-3 { 0%, 100% { fill: #1f2335; } 50% { fill: #ff9e64; filter: drop-shadow(0 0 2px #ff9e64); } }
    .light-3 { animation: blink-3 3.44s infinite; animation-delay: 1.64s; }
    @keyframes blink-4 { 0%, 100% { fill: #1f2335; } 50% { fill: #ff9e64; filter: drop-shadow(0 0 2px #ff9e64); } }
    .light-4 { animation: blink-4 1.78s infinite; animation-delay: 1.28s; }
    @keyframes blink-5 { 0%, 100% { fill: #1f2335; } 50% { fill: #ff9e64; filter: drop-shadow(0 0 2px #ff9e64); } }
    .light-5 { animation: blink-5 2.36s infinite; animation-delay: 0.78s; }
  </style>

  <rect x="20" y="60" width="60" height="140" fill="#16161e" rx="2" />
  <rect class="light-5" x="26" y="70" width="6" height="8" rx="1" fill="#1f2335" />
  <rect class="light-1" x="40" y="70" width="6" height="8" rx="1" fill="#1f2335" />
  <rect class="light-5" x="54" y="70" width="6" height="8" rx="1" fill="#1f2335" />
  <rect class="light-2" x="68" y="70" width="6" height="8" rx="1" fill="#1f2335" />
  <rect class="light-5" x="26" y="88" width="6" height="8" rx="1" fill="#1f2335" />
  <rect class="light-3" x="40" y="88" width="6" height="8" rx="1" fill="#1f2335" />
  <rect class="light-4" x="54" y="88" width="6" height="8" rx="1" fill="#1f2335" />
  <rect class="light-3" x="68" y="88" width="6" height="8" rx="1" fill="#1f2335" />
  <rect class="light-2" x="26" y="106" width="6" height="8" rx="1" fill="#1f2335" />
  <rect class="light-5" x="40" y="106" width="6" height="8" rx="1" fill="#1f2335" />
  <rect class="light-1" x="54" y="106" width="6" height="8" rx="1" fill="#1f2335" />
  <rect class="light-1" x="68" y="106" width="6" height="8" rx="1" fill="#1f2335" />
  <rect class="light-3" x="26" y="124" width="6" height="8" rx="1" fill="#1f2335" />
  <rect class="light-4" x="40" y="124" width="6" height="8" rx="1" fill="#1f2335" />
  <rect class="light-3" x="54" y="124" width="6" height="8" rx="1" fill="#1f2335" />
  <rect class="light-2" x="68" y="124" width="6" height="8" rx="1" fill="#1f2335" />
  <rect class="light-4" x="26" y="142" width="6" height="8" rx="1" fill="#1f2335" />
  <rect class="light-2" x="40" y="142" width="6" height="8" rx="1" fill="#1f2335" />
  <rect class="light-3" x="54" y="142" width="6" height="8" rx="1" fill="#1f2335" />
  <rect class="light-2" x="68" y="142" width="6" height="8" rx="1" fill="#1f2335" />
  <rect class="light-2" x="26" y="160" width="6" height="8" rx="1" fill="#1f2335" />
  <rect class="light-3" x="40" y="160" width="6" height="8" rx="1" fill="#1f2335" />
  <rect class="light-1" x="54" y="160" width="6" height="8" rx="1" fill="#1f2335" />
  <rect class="light-3" x="68" y="160" width="6" height="8" rx="1" fill="#1f2335" />
  <rect x="95" y="30" width="80" height="170" fill="#16161e" rx="2" />
  <rect class="light-1" x="101" y="40" width="6" height="8" rx="1" fill="#1f2335" />
  <rect class="light-2" x="115" y="40" width="6" height="8" rx="1" fill="#1f2335" />
  <rect class="light-2" x="129" y="40" width="6" height="8" rx="1" fill="#1f2335" />
  <rect class="light-1" x="143" y="40" width="6" height="8" rx="1" fill="#1f2335" />
  <rect class="light-1" x="157" y="40" width="6" height="8" rx="1" fill="#1f2335" />
  <rect class="light-2" x="101" y="58" width="6" height="8" rx="1" fill="#1f2335" />
  <rect class="light-1" x="115" y="58" width="6" height="8" rx="1" fill="#1f2335" />
  <rect class="light-1" x="129" y="58" width="6" height="8" rx="1" fill="#1f2335" />
  <rect class="light-4" x="143" y="58" width="6" height="8" rx="1" fill="#1f2335" />
  <rect class="light-3" x="157" y="58" width="6" height="8" rx="1" fill="#1f2335" />
  <rect class="light-2" x="101" y="76" width="6" height="8" rx="1" fill="#1f2335" />
  <rect class="light-3" x="115" y="76" width="6" height="8" rx="1" fill="#1f2335" />
  <rect class="light-1" x="129" y="76" width="6" height="8" rx="1" fill="#1f2335" />
  <rect class="light-3" x="143" y="76" width="6" height="8" rx="1" fill="#1f2335" />
  <rect class="light-3" x="157" y="76" width="6" height="8" rx="1" fill="#1f2335" />
  <rect class="light-4" x="101" y="94" width="6" height="8" rx="1" fill="#1f2335" />
  <rect class="light-1" x="115" y="94" width="6" height="8" rx="1" fill="#1f2335" />
  <rect class="light-4" x="129" y="94" width="6" height="8" rx="1" fill="#1f2335" />
  <rect class="light-3" x="143" y="94" width="6" height="8" rx="1" fill="#1f2335" />
  <rect class="light-1" x="157" y="94" width="6" height="8" rx="1" fill="#1f2335" />
  <rect class="light-1" x="101" y="112" width="6" height="8" rx="1" fill="#1f2335" />
  <rect class="light-2" x="115" y="112" width="6" height="8" rx="1" fill="#1f2335" />
  <rect class="light-2" x="129" y="112" width="6" height="8" rx="1" fill="#1f2335" />
  <rect class="light-4" x="143" y="112" width="6" height="8" rx="1" fill="#1f2335" />
  <rect class="light-2" x="157" y="112" width="6" height="8" rx="1" fill="#1f2335" />
  <rect class="light-1" x="101" y="130" width="6" height="8" rx="1" fill="#1f2335" />
  <rect class="light-4" x="115" y="130" width="6" height="8" rx="1" fill="#1f2335" />
  <rect class="light-1" x="129" y="130" width="6" height="8" rx="1" fill="#1f2335" />
  <rect class="light-1" x="143" y="130" width="6" height="8" rx="1" fill="#1f2335" />
  <rect class="light-4" x="157" y="130" width="6" height="8" rx="1" fill="#1f2335" />
  <rect class="light-4" x="101" y="148" width="6" height="8" rx="1" fill="#1f2335" />
  <rect class="light-4" x="115" y="148" width="6" height="8" rx="1" fill="#1f2335" />
  <rect class="light-2" x="129" y="148" width="6" height="8" rx="1" fill="#1f2335" />
  <rect class="light-4" x="143" y="148" width="6" height="8" rx="1" fill="#1f2335" />
  <rect class="light-1" x="157" y="148" width="6" height="8" rx="1" fill="#1f2335" />
  <rect class="light-5" x="101" y="166" width="6" height="8" rx="1" fill="#1f2335" />
  <rect class="light-4" x="115" y="166" width="6" height="8" rx="1" fill="#1f2335" />
  <rect class="light-1" x="129" y="166" width="6" height="8" rx="1" fill="#1f2335" />
  <rect class="light-3" x="143" y="166" width="6" height="8" rx="1" fill="#1f2335" />
  <rect class="light-1" x="157" y="166" width="6" height="8" rx="1" fill="#1f2335" />
  <rect x="190" y="80" width="55" height="120" fill="#16161e" rx="2" />
  <rect class="light-5" x="196" y="90" width="6" height="8" rx="1" fill="#1f2335" />
  <rect class="light-1" x="210" y="90" width="6" height="8" rx="1" fill="#1f2335" />
  <rect class="light-3" x="224" y="90" width="6" height="8" rx="1" fill="#1f2335" />
  <rect class="light-4" x="196" y="108" width="6" height="8" rx="1" fill="#1f2335" />
  <rect class="light-1" x="210" y="108" width="6" height="8" rx="1" fill="#1f2335" />
  <rect class="light-2" x="224" y="108" width="6" height="8" rx="1" fill="#1f2335" />
  <rect class="light-3" x="196" y="126" width="6" height="8" rx="1" fill="#1f2335" />
  <rect class="light-3" x="210" y="126" width="6" height="8" rx="1" fill="#1f2335" />
  <rect class="light-2" x="224" y="126" width="6" height="8" rx="1" fill="#1f2335" />
  <rect class="light-3" x="196" y="144" width="6" height="8" rx="1" fill="#1f2335" />
  <rect class="light-5" x="210" y="144" width="6" height="8" rx="1" fill="#1f2335" />
  <rect class="light-3" x="224" y="144" width="6" height="8" rx="1" fill="#1f2335" />
  <rect class="light-3" x="196" y="162" width="6" height="8" rx="1" fill="#1f2335" />
  <rect class="light-2" x="210" y="162" width="6" height="8" rx="1" fill="#1f2335" />
  <rect class="light-1" x="224" y="162" width="6" height="8" rx="1" fill="#1f2335" />
  <rect x="260" y="45" width="75" height="155" fill="#16161e" rx="2" />
  <rect class="light-5" x="266" y="55" width="6" height="8" rx="1" fill="#1f2335" />
  <rect class="light-5" x="280" y="55" width="6" height="8" rx="1" fill="#1f2335" />
  <rect class="light-1" x="294" y="55" width="6" height="8" rx="1" fill="#1f2335" />
  <rect class="light-1" x="308" y="55" width="6" height="8" rx="1" fill="#1f2335" />
  <rect class="light-5" x="322" y="55" width="6" height="8" rx="1" fill="#1f2335" />
  <rect class="light-3" x="266" y="73" width="6" height="8" rx="1" fill="#1f2335" />
  <rect class="light-1" x="280" y="73" width="6" height="8" rx="1" fill="#1f2335" />
  <rect class="light-3" x="294" y="73" width="6" height="8" rx="1" fill="#1f2335" />
  <rect class="light-1" x="308" y="73" width="6" height="8" rx="1" fill="#1f2335" />
  <rect class="light-1" x="322" y="73" width="6" height="8" rx="1" fill="#1f2335" />
  <rect class="light-4" x="266" y="91" width="6" height="8" rx="1" fill="#1f2335" />
  <rect class="light-5" x="280" y="91" width="6" height="8" rx="1" fill="#1f2335" />
  <rect class="light-1" x="294" y="91" width="6" height="8" rx="1" fill="#1f2335" />
  <rect class="light-4" x="308" y="91" width="6" height="8" rx="1" fill="#1f2335" />
  <rect class="light-1" x="322" y="91" width="6" height="8" rx="1" fill="#1f2335" />
  <rect class="light-3" x="266" y="109" width="6" height="8" rx="1" fill="#1f2335" />
  <rect class="light-1" x="280" y="109" width="6" height="8" rx="1" fill="#1f2335" />
  <rect class="light-3" x="294" y="109" width="6" height="8" rx="1" fill="#1f2335" />
  <rect class="light-1" x="308" y="109" width="6" height="8" rx="1" fill="#1f2335" />
  <rect class="light-5" x="322" y="109" width="6" height="8" rx="1" fill="#1f2335" />
  <rect class="light-3" x="266" y="127" width="6" height="8" rx="1" fill="#1f2335" />
  <rect class="light-2" x="280" y="127" width="6" height="8" rx="1" fill="#1f2335" />
  <rect class="light-4" x="294" y="127" width="6" height="8" rx="1" fill="#1f2335" />
  <rect class="light-5" x="308" y="127" width="6" height="8" rx="1" fill="#1f2335" />
  <rect class="light-1" x="322" y="127" width="6" height="8" rx="1" fill="#1f2335" />
  <rect class="light-2" x="266" y="145" width="6" height="8" rx="1" fill="#1f2335" />
  <rect class="light-4" x="280" y="145" width="6" height="8" rx="1" fill="#1f2335" />
  <rect class="light-4" x="294" y="145" width="6" height="8" rx="1" fill="#1f2335" />
  <rect class="light-3" x="308" y="145" width="6" height="8" rx="1" fill="#1f2335" />
  <rect class="light-1" x="322" y="145" width="6" height="8" rx="1" fill="#1f2335" />
  <rect class="light-1" x="266" y="163" width="6" height="8" rx="1" fill="#1f2335" />
  <rect class="light-2" x="280" y="163" width="6" height="8" rx="1" fill="#1f2335" />
  <rect class="light-1" x="294" y="163" width="6" height="8" rx="1" fill="#1f2335" />
  <rect class="light-5" x="308" y="163" width="6" height="8" rx="1" fill="#1f2335" />
  <rect class="light-5" x="322" y="163" width="6" height="8" rx="1" fill="#1f2335" />
  <rect x="350" y="70" width="60" height="130" fill="#16161e" rx="2" />
  <rect class="light-4" x="356" y="80" width="6" height="8" rx="1" fill="#1f2335" />
  <rect class="light-2" x="370" y="80" width="6" height="8" rx="1" fill="#1f2335" />
  <rect class="light-1" x="384" y="80" width="6" height="8" rx="1" fill="#1f2335" />
  <rect class="light-4" x="398" y="80" width="6" height="8" rx="1" fill="#1f2335" />
  <rect class="light-5" x="356" y="98" width="6" height="8" rx="1" fill="#1f2335" />
  <rect class="light-3" x="370" y="98" width="6" height="8" rx="1" fill="#1f2335" />
  <rect class="light-5" x="384" y="98" width="6" height="8" rx="1" fill="#1f2335" />
  <rect class="light-2" x="398" y="98" width="6" height="8" rx="1" fill="#1f2335" />
  <rect class="light-3" x="356" y="116" width="6" height="8" rx="1" fill="#1f2335" />
  <rect class="light-5" x="370" y="116" width="6" height="8" rx="1" fill="#1f2335" />
  <rect class="light-4" x="384" y="116" width="6" height="8" rx="1" fill="#1f2335" />
  <rect class="light-4" x="398" y="116" width="6" height="8" rx="1" fill="#1f2335" />
  <rect class="light-5" x="356" y="134" width="6" height="8" rx="1" fill="#1f2335" />
  <rect class="light-1" x="370" y="134" width="6" height="8" rx="1" fill="#1f2335" />
  <rect class="light-5" x="384" y="134" width="6" height="8" rx="1" fill="#1f2335" />
  <rect class="light-5" x="398" y="134" width="6" height="8" rx="1" fill="#1f2335" />
  <rect class="light-1" x="356" y="152" width="6" height="8" rx="1" fill="#1f2335" />
  <rect class="light-3" x="370" y="152" width="6" height="8" rx="1" fill="#1f2335" />
  <rect class="light-5" x="384" y="152" width="6" height="8" rx="1" fill="#1f2335" />
  <rect class="light-1" x="398" y="152" width="6" height="8" rx="1" fill="#1f2335" />
  <rect class="light-4" x="356" y="170" width="6" height="8" rx="1" fill="#1f2335" />
  <rect class="light-3" x="370" y="170" width="6" height="8" rx="1" fill="#1f2335" />
  <rect class="light-1" x="384" y="170" width="6" height="8" rx="1" fill="#1f2335" />
  <rect class="light-4" x="398" y="170" width="6" height="8" rx="1" fill="#1f2335" />
  <rect x="425" y="50" width="55" height="150" fill="#16161e" rx="2" />
  <rect class="light-3" x="431" y="60" width="6" height="8" rx="1" fill="#1f2335" />
  <rect class="light-3" x="445" y="60" width="6" height="8" rx="1" fill="#1f2335" />
  <rect class="light-5" x="459" y="60" width="6" height="8" rx="1" fill="#1f2335" />
  <rect class="light-3" x="431" y="78" width="6" height="8" rx="1" fill="#1f2335" />
  <rect class="light-4" x="445" y="78" width="6" height="8" rx="1" fill="#1f2335" />
  <rect class="light-3" x="459" y="78" width="6" height="8" rx="1" fill="#1f2335" />
  <rect class="light-1" x="431" y="96" width="6" height="8" rx="1" fill="#1f2335" />
  <rect class="light-2" x="445" y="96" width="6" height="8" rx="1" fill="#1f2335" />
  <rect class="light-5" x="459" y="96" width="6" height="8" rx="1" fill="#1f2335" />
  <rect class="light-2" x="431" y="114" width="6" height="8" rx="1" fill="#1f2335" />
  <rect class="light-2" x="445" y="114" width="6" height="8" rx="1" fill="#1f2335" />
  <rect class="light-3" x="459" y="114" width="6" height="8" rx="1" fill="#1f2335" />
  <rect class="light-4" x="431" y="132" width="6" height="8" rx="1" fill="#1f2335" />
  <rect class="light-4" x="445" y="132" width="6" height="8" rx="1" fill="#1f2335" />
  <rect class="light-4" x="459" y="132" width="6" height="8" rx="1" fill="#1f2335" />
  <rect class="light-4" x="431" y="150" width="6" height="8" rx="1" fill="#1f2335" />
  <rect class="light-1" x="445" y="150" width="6" height="8" rx="1" fill="#1f2335" />
  <rect class="light-5" x="459" y="150" width="6" height="8" rx="1" fill="#1f2335" />
  <rect class="light-3" x="431" y="168" width="6" height="8" rx="1" fill="#1f2335" />
  <rect class="light-5" x="445" y="168" width="6" height="8" rx="1" fill="#1f2335" />
  <rect class="light-3" x="459" y="168" width="6" height="8" rx="1" fill="#1f2335" />
</svg>