<svg xmlns="http://www.w3.org/2000/svg" viewBox="0 0 500 200" width="100%" style="background: linear-gradient(180deg, #070810 0%, #0d0e15 100%); border-radius: 8px;">
  <style>
    @keyframes blink-1 { 0%, 100% { fill: #1a1b26; filter: none; } 50% { fill: #ff9e64; filter: drop-shadow(0 0 2px #ff9e64); } }
    .light-1 { animation: blink-1 2.62s infinite; animation-delay: 1.48s; }
    @keyframes blink-2 { 0%, 100% { fill: #1a1b26; filter: none; } 50% { fill: #ff9e64; filter: drop-shadow(0 0 2px #ff9e64); } }
    .light-2 { animation: blink-2 1.97s infinite; animation-delay: 2.37s; }
    @keyframes blink-3 { 0%, 100% { fill: #1a1b26; filter: none; } 50% { fill: #ff007f; filter: drop-shadow(0 0 2px #ff007f); } }
    .light-3 { animation: blink-3 2.97s infinite; animation-delay: 2.20s; }
    @keyframes blink-4 { 0%, 100% { fill: #1a1b26; filter: none; } 50% { fill: #ff007f; filter: drop-shadow(0 0 2px #ff007f); } }
    .light-4 { animation: blink-4 2.02s infinite; animation-delay: 1.21s; }
    @keyframes blink-5 { 0%, 100% { fill: #1a1b26; filter: none; } 50% { fill: #00f0ff; filter: drop-shadow(0 0 2px #00f0ff); } }
    .light-5 { animation: blink-5 3.24s infinite; animation-delay: 1.24s; }
    @keyframes beacon { 0%, 100% { opacity: 0.3; } 50% { opacity: 1; filter: drop-shadow(0 0 3px #ff0055); } }
    .beacon { animation: beacon 1.2s infinite; fill: #ff0055; }
  </style>

  <rect x="20" y="60" width="60" height="140" fill="#10121a" stroke="#1f2335" stroke-width="0.5" rx="2" />
  <rect class="light-5" x="26" y="70" width="4" height="6" rx="0.5" fill="#1a1b26" />
  <rect class="light-5" x="36" y="70" width="4" height="6" rx="0.5" fill="#1a1b26" />
  <rect x="46" y="70" width="4" height="6" rx="0.5" fill="#14151f" />
  <rect class="light-1" x="56" y="70" width="4" height="6" rx="0.5" fill="#1a1b26" />
  <rect class="light-3" x="66" y="70" width="4" height="6" rx="0.5" fill="#1a1b26" />
  <rect class="light-1" x="26" y="84" width="4" height="6" rx="0.5" fill="#1a1b26" />
  <rect class="light-1" x="36" y="84" width="4" height="6" rx="0.5" fill="#1a1b26" />
  <rect class="light-4" x="46" y="84" width="4" height="6" rx="0.5" fill="#1a1b26" />
  <rect class="light-1" x="56" y="84" width="4" height="6" rx="0.5" fill="#1a1b26" />
  <rect class="light-2" x="66" y="84" width="4" height="6" rx="0.5" fill="#1a1b26" />
  <rect class="light-4" x="26" y="98" width="4" height="6" rx="0.5" fill="#1a1b26" />
  <rect class="light-4" x="36" y="98" width="4" height="6" rx="0.5" fill="#1a1b26" />
  <rect class="light-3" x="46" y="98" width="4" height="6" rx="0.5" fill="#1a1b26" />
  <rect class="light-2" x="56" y="98" width="4" height="6" rx="0.5" fill="#1a1b26" />
  <rect x="66" y="98" width="4" height="6" rx="0.5" fill="#14151f" />
  <rect class="light-5" x="26" y="112" width="4" height="6" rx="0.5" fill="#1a1b26" />
  <rect class="light-5" x="36" y="112" width="4" height="6" rx="0.5" fill="#1a1b26" />
  <rect class="light-4" x="46" y="112" width="4" height="6" rx="0.5" fill="#1a1b26" />
  <rect class="light-4" x="56" y="112" width="4" height="6" rx="0.5" fill="#1a1b26" />
  <rect class="light-1" x="66" y="112" width="4" height="6" rx="0.5" fill="#1a1b26" />
  <rect class="light-3" x="26" y="126" width="4" height="6" rx="0.5" fill="#1a1b26" />
  <rect x="36" y="126" width="4" height="6" rx="0.5" fill="#14151f" />
  <rect class="light-4" x="46" y="126" width="4" height="6" rx="0.5" fill="#1a1b26" />
  <rect class="light-1" x="56" y="126" width="4" height="6" rx="0.5" fill="#1a1b26" />
  <rect x="66" y="126" width="4" height="6" rx="0.5" fill="#14151f" />
  <rect class="light-2" x="26" y="140" width="4" height="6" rx="0.5" fill="#1a1b26" />
  <rect class="light-4" x="36" y="140" width="4" height="6" rx="0.5" fill="#1a1b26" />
  <rect class="light-3" x="46" y="140" width="4" height="6" rx="0.5" fill="#1a1b26" />
  <rect class="light-4" x="56" y="140" width="4" height="6" rx="0.5" fill="#1a1b26" />
  <rect x="66" y="140" width="4" height="6" rx="0.5" fill="#14151f" />
  <rect class="light-3" x="26" y="154" width="4" height="6" rx="0.5" fill="#1a1b26" />
  <rect class="light-1" x="36" y="154" width="4" height="6" rx="0.5" fill="#1a1b26" />
  <rect class="light-5" x="46" y="154" width="4" height="6" rx="0.5" fill="#1a1b26" />
  <rect class="light-1" x="56" y="154" width="4" height="6" rx="0.5" fill="#1a1b26" />
  <rect class="light-1" x="66" y="154" width="4" height="6" rx="0.5" fill="#1a1b26" />
  <rect class="light-3" x="26" y="168" width="4" height="6" rx="0.5" fill="#1a1b26" />
  <rect class="light-2" x="36" y="168" width="4" height="6" rx="0.5" fill="#1a1b26" />
  <rect class="light-1" x="46" y="168" width="4" height="6" rx="0.5" fill="#1a1b26" />
  <rect x="56" y="168" width="4" height="6" rx="0.5" fill="#14151f" />
  <rect class="light-3" x="66" y="168" width="4" height="6" rx="0.5" fill="#1a1b26" />
  <rect class="light-1" x="26" y="182" width="4" height="6" rx="0.5" fill="#1a1b26" />
  <rect class="light-5" x="36" y="182" width="4" height="6" rx="0.5" fill="#1a1b26" />
  <rect class="light-4" x="46" y="182" width="4" height="6" rx="0.5" fill="#1a1b26" />
  <rect class="light-1" x="56" y="182" width="4" height="6" rx="0.5" fill="#1a1b26" />
  <rect x="66" y="182" width="4" height="6" rx="0.5" fill="#14151f" />
  <line x1="135" y1="30" x2="135" y2="18" stroke="#ff0055" stroke-width="1" opacity="0.6" />
  <circle class="beacon" cx="135" cy="18" r="1.5" />
  <rect x="95" y="30" width="80" height="170" fill="#10121a" stroke="#1f2335" stroke-width="0.5" rx="2" />
  <rect x="101" y="40" width="4" height="6" rx="0.5" fill="#14151f" />
  <rect class="light-2" x="111" y="40" width="4" height="6" rx="0.5" fill="#1a1b26" />
  <rect x="121" y="40" width="4" height="6" rx="0.5" fill="#14151f" />
  <rect class="light-1" x="131" y="40" width="4" height="6" rx="0.5" fill="#1a1b26" />
  <rect class="light-5" x="141" y="40" width="4" height="6" rx="0.5" fill="#1a1b26" />
  <rect x="151" y="40" width="4" height="6" rx="0.5" fill="#14151f" />
  <rect class="light-5" x="161" y="40" width="4" height="6" rx="0.5" fill="#1a1b26" />
  <rect class="light-5" x="101" y="54" width="4" height="6" rx="0.5" fill="#1a1b26" />
  <rect class="light-5" x="111" y="54" width="4" height="6" rx="0.5" fill="#1a1b26" />
  <rect class="light-5" x="121" y="54" width="4" height="6" rx="0.5" fill="#1a1b26" />
  <rect class="light-1" x="131" y="54" width="4" height="6" rx="0.5" fill="#1a1b26" />
  <rect class="light-4" x="141" y="54" width="4" height="6" rx="0.5" fill="#1a1b26" />
  <rect class="light-2" x="151" y="54" width="4" height="6" rx="0.5" fill="#1a1b26" />
  <rect class="light-2" x="161" y="54" width="4" height="6" rx="0.5" fill="#1a1b26" />
  <rect class="light-5" x="101" y="68" width="4" height="6" rx="0.5" fill="#1a1b26" />
  <rect class="light-2" x="111" y="68" width="4" height="6" rx="0.5" fill="#1a1b26" />
  <rect class="light-1" x="121" y="68" width="4" height="6" rx="0.5" fill="#1a1b26" />
  <rect class="light-3" x="131" y="68" width="4" height="6" rx="0.5" fill="#1a1b26" />
  <rect class="light-3" x="141" y="68" width="4" height="6" rx="0.5" fill="#1a1b26" />
  <rect class="light-5" x="151" y="68" width="4" height="6" rx="0.5" fill="#1a1b26" />
  <rect class="light-2" x="161" y="68" width="4" height="6" rx="0.5" fill="#1a1b26" />
  <rect class="light-4" x="101" y="82" width="4" height="6" rx="0.5" fill="#1a1b26" />
  <rect class="light-3" x="111" y="82" width="4" height="6" rx="0.5" fill="#1a1b26" />
  <rect class="light-5" x="121" y="82" width="4" height="6" rx="0.5" fill="#1a1b26" />
  <rect class="light-3" x="131" y="82" width="4" height="6" rx="0.5" fill="#1a1b26" />
  <rect class="light-3" x="141" y="82" width="4" height="6" rx="0.5" fill="#1a1b26" />
  <rect class="light-5" x="151" y="82" width="4" height="6" rx="0.5" fill="#1a1b26" />
  <rect class="light-3" x="161" y="82" width="4" height="6" rx="0.5" fill="#1a1b26" />
  <rect class="light-1" x="101" y="96" width="4" height="6" rx="0.5" fill="#1a1b26" />
  <rect class="light-5" x="111" y="96" width="4" height="6" rx="0.5" fill="#1a1b26" />
  <rect x="121" y="96" width="4" height="6" rx="0.5" fill="#14151f" />
  <rect class="light-4" x="131" y="96" width="4" height="6" rx="0.5" fill="#1a1b26" />
  <rect x="141" y="96" width="4" height="6" rx="0.5" fill="#14151f" />
  <rect x="151" y="96" width="4" height="6" rx="0.5" fill="#14151f" />
  <rect class="light-5" x="161" y="96" width="4" height="6" rx="0.5" fill="#1a1b26" />
  <rect class="light-3" x="101" y="110" width="4" height="6" rx="0.5" fill="#1a1b26" />
  <rect class="light-2" x="111" y="110" width="4" height="6" rx="0.5" fill="#1a1b26" />
  <rect class="light-2" x="121" y="110" width="4" height="6" rx="0.5" fill="#1a1b26" />
  <rect class="light-4" x="131" y="110" width="4" height="6" rx="0.5" fill="#1a1b26" />
  <rect class="light-1" x="141" y="110" width="4" height="6" rx="0.5" fill="#1a1b26" />
  <rect class="light-3" x="151" y="110" width="4" height="6" rx="0.5" fill="#1a1b26" />
  <rect class="light-4" x="161" y="110" width="4" height="6" rx="0.5" fill="#1a1b26" />
  <rect class="light-2" x="101" y="124" width="4" height="6" rx="0.5" fill="#1a1b26" />
  <rect class="light-2" x="111" y="124" width="4" height="6" rx="0.5" fill="#1a1b26" />
  <rect class="light-4" x="121" y="124" width="4" height="6" rx="0.5" fill="#1a1b26" />
  <rect class="light-4" x="131" y="124" width="4" height="6" rx="0.5" fill="#1a1b26" />
  <rect x="141" y="124" width="4" height="6" rx="0.5" fill="#14151f" />
  <rect class="light-4" x="151" y="124" width="4" height="6" rx="0.5" fill="#1a1b26" />
  <rect class="light-2" x="161" y="124" width="4" height="6" rx="0.5" fill="#1a1b26" />
  <rect class="light-3" x="101" y="138" width="4" height="6" rx="0.5" fill="#1a1b26" />
  <rect class="light-2" x="111" y="138" width="4" height="6" rx="0.5" fill="#1a1b26" />
  <rect class="light-4" x="121" y="138" width="4" height="6" rx="0.5" fill="#1a1b26" />
  <rect class="light-4" x="131" y="138" width="4" height="6" rx="0.5" fill="#1a1b26" />
  <rect x="141" y="138" width="4" height="6" rx="0.5" fill="#14151f" />
  <rect class="light-3" x="151" y="138" width="4" height="6" rx="0.5" fill="#1a1b26" />
  <rect class="light-4" x="161" y="138" width="4" height="6" rx="0.5" fill="#1a1b26" />
  <rect class="light-4" x="101" y="152" width="4" height="6" rx="0.5" fill="#1a1b26" />
  <rect class="light-3" x="111" y="152" width="4" height="6" rx="0.5" fill="#1a1b26" />
  <rect class="light-1" x="121" y="152" width="4" height="6" rx="0.5" fill="#1a1b26" />
  <rect class="light-1" x="131" y="152" width="4" height="6" rx="0.5" fill="#1a1b26" />
  <rect class="light-2" x="141" y="152" width="4" height="6" rx="0.5" fill="#1a1b26" />
  <rect class="light-5" x="151" y="152" width="4" height="6" rx="0.5" fill="#1a1b26" />
  <rect class="light-2" x="161" y="152" width="4" height="6" rx="0.5" fill="#1a1b26" />
  <rect x="101" y="166" width="4" height="6" rx="0.5" fill="#14151f" />
  <rect class="light-1" x="111" y="166" width="4" height="6" rx="0.5" fill="#1a1b26" />
  <rect x="121" y="166" width="4" height="6" rx="0.5" fill="#14151f" />
  <rect class="light-3" x="131" y="166" width="4" height="6" rx="0.5" fill="#1a1b26" />
  <rect class="light-3" x="141" y="166" width="4" height="6" rx="0.5" fill="#1a1b26" />
  <rect class="light-2" x="151" y="166" width="4" height="6" rx="0.5" fill="#1a1b26" />
  <rect class="light-1" x="161" y="166" width="4" height="6" rx="0.5" fill="#1a1b26" />
  <rect class="light-5" x="101" y="180" width="4" height="6" rx="0.5" fill="#1a1b26" />
  <rect class="light-3" x="111" y="180" width="4" height="6" rx="0.5" fill="#1a1b26" />
  <rect class="light-3" x="121" y="180" width="4" height="6" rx="0.5" fill="#1a1b26" />
  <rect class="light-5" x="131" y="180" width="4" height="6" rx="0.5" fill="#1a1b26" />
  <rect x="141" y="180" width="4" height="6" rx="0.5" fill="#14151f" />
  <rect class="light-1" x="151" y="180" width="4" height="6" rx="0.5" fill="#1a1b26" />
  <rect class="light-5" x="161" y="180" width="4" height="6" rx="0.5" fill="#1a1b26" />
  <rect x="190" y="80" width="55" height="120" fill="#10121a" stroke="#1f2335" stroke-width="0.5" rx="2" />
  <rect class="light-3" x="196" y="90" width="4" height="6" rx="0.5" fill="#1a1b26" />
  <rect class="light-2" x="206" y="90" width="4" height="6" rx="0.5" fill="#1a1b26" />
  <rect class="light-2" x="216" y="90" width="4" height="6" rx="0.5" fill="#1a1b26" />
  <rect x="226" y="90" width="4" height="6" rx="0.5" fill="#14151f" />
  <rect x="196" y="104" width="4" height="6" rx="0.5" fill="#14151f" />
  <rect class="light-3" x="206" y="104" width="4" height="6" rx="0.5" fill="#1a1b26" />
  <rect class="light-3" x="216" y="104" width="4" height="6" rx="0.5" fill="#1a1b26" />
  <rect x="226" y="104" width="4" height="6" rx="0.5" fill="#14151f" />
  <rect class="light-3" x="196" y="118" width="4" height="6" rx="0.5" fill="#1a1b26" />
  <rect class="light-4" x="206" y="118" width="4" height="6" rx="0.5" fill="#1a1b26" />
  <rect class="light-5" x="216" y="118" width="4" height="6" rx="0.5" fill="#1a1b26" />
  <rect class="light-4" x="226" y="118" width="4" height="6" rx="0.5" fill="#1a1b26" />
  <rect class="light-4" x="196" y="132" width="4" height="6" rx="0.5" fill="#1a1b26" />
  <rect class="light-2" x="206" y="132" width="4" height="6" rx="0.5" fill="#1a1b26" />
  <rect class="light-4" x="216" y="132" width="4" height="6" rx="0.5" fill="#1a1b26" />
  <rect class="light-2" x="226" y="132" width="4" height="6" rx="0.5" fill="#1a1b26" />
  <rect class="light-2" x="196" y="146" width="4" height="6" rx="0.5" fill="#1a1b26" />
  <rect class="light-5" x="206" y="146" width="4" height="6" rx="0.5" fill="#1a1b26" />
  <rect class="light-3" x="216" y="146" width="4" height="6" rx="0.5" fill="#1a1b26" />
  <rect class="light-5" x="226" y="146" width="4" height="6" rx="0.5" fill="#1a1b26" />
  <rect class="light-5" x="196" y="160" width="4" height="6" rx="0.5" fill="#1a1b26" />
  <rect x="206" y="160" width="4" height="6" rx="0.5" fill="#14151f" />
  <rect class="light-5" x="216" y="160" width="4" height="6" rx="0.5" fill="#1a1b26" />
  <rect class="light-4" x="226" y="160" width="4" height="6" rx="0.5" fill="#1a1b26" />
  <rect class="light-5" x="196" y="174" width="4" height="6" rx="0.5" fill="#1a1b26" />
  <rect class="light-1" x="206" y="174" width="4" height="6" rx="0.5" fill="#1a1b26" />
  <rect class="light-1" x="216" y="174" width="4" height="6" rx="0.5" fill="#1a1b26" />
  <rect x="226" y="174" width="4" height="6" rx="0.5" fill="#14151f" />
  <line x1="297" y1="45" x2="297" y2="33" stroke="#ff0055" stroke-width="1" opacity="0.6" />
  <circle class="beacon" cx="297" cy="33" r="1.5" />
  <rect x="260" y="45" width="75" height="155" fill="#10121a" stroke="#1f2335" stroke-width="0.5" rx="2" />
  <rect class="light-1" x="266" y="55" width="4" height="6" rx="0.5" fill="#1a1b26" />
  <rect class="light-2" x="276" y="55" width="4" height="6" rx="0.5" fill="#1a1b26" />
  <rect class="light-4" x="286" y="55" width="4" height="6" rx="0.5" fill="#1a1b26" />
  <rect class="light-2" x="296" y="55" width="4" height="6" rx="0.5" fill="#1a1b26" />
  <rect class="light-4" x="306" y="55" width="4" height="6" rx="0.5" fill="#1a1b26" />
  <rect class="light-3" x="316" y="55" width="4" height="6" rx="0.5" fill="#1a1b26" />
  <rect class="light-4" x="266" y="69" width="4" height="6" rx="0.5" fill="#1a1b26" />
  <rect class="light-5" x="276" y="69" width="4" height="6" rx="0.5" fill="#1a1b26" />
  <rect class="light-4" x="286" y="69" width="4" height="6" rx="0.5" fill="#1a1b26" />
  <rect class="light-5" x="296" y="69" width="4" height="6" rx="0.5" fill="#1a1b26" />
  <rect class="light-3" x="306" y="69" width="4" height="6" rx="0.5" fill="#1a1b26" />
  <rect class="light-2" x="316" y="69" width="4" height="6" rx="0.5" fill="#1a1b26" />
  <rect class="light-4" x="266" y="83" width="4" height="6" rx="0.5" fill="#1a1b26" />
  <rect class="light-1" x="276" y="83" width="4" height="6" rx="0.5" fill="#1a1b26" />
  <rect class="light-2" x="286" y="83" width="4" height="6" rx="0.5" fill="#1a1b26" />
  <rect class="light-3" x="296" y="83" width="4" height="6" rx="0.5" fill="#1a1b26" />
  <rect x="306" y="83" width="4" height="6" rx="0.5" fill="#14151f" />
  <rect class="light-3" x="316" y="83" width="4" height="6" rx="0.5" fill="#1a1b26" />
  <rect x="266" y="97" width="4" height="6" rx="0.5" fill="#14151f" />
  <rect class="light-2" x="276" y="97" width="4" height="6" rx="0.5" fill="#1a1b26" />
  <rect class="light-5" x="286" y="97" width="4" height="6" rx="0.5" fill="#1a1b26" />
  <rect class="light-4" x="296" y="97" width="4" height="6" rx="0.5" fill="#1a1b26" />
  <rect x="306" y="97" width="4" height="6" rx="0.5" fill="#14151f" />
  <rect class="light-2" x="316" y="97" width="4" height="6" rx="0.5" fill="#1a1b26" />
  <rect class="light-5" x="266" y="111" width="4" height="6" rx="0.5" fill="#1a1b26" />
  <rect class="light-5" x="276" y="111" width="4" height="6" rx="0.5" fill="#1a1b26" />
  <rect class="light-3" x="286" y="111" width="4" height="6" rx="0.5" fill="#1a1b26" />
  <rect class="light-4" x="296" y="111" width="4" height="6" rx="0.5" fill="#1a1b26" />
  <rect class="light-1" x="306" y="111" width="4" height="6" rx="0.5" fill="#1a1b26" />
  <rect x="316" y="111" width="4" height="6" rx="0.5" fill="#14151f" />
  <rect class="light-5" x="266" y="125" width="4" height="6" rx="0.5" fill="#1a1b26" />
  <rect class="light-2" x="276" y="125" width="4" height="6" rx="0.5" fill="#1a1b26" />
  <rect x="286" y="125" width="4" height="6" rx="0.5" fill="#14151f" />
  <rect class="light-3" x="296" y="125" width="4" height="6" rx="0.5" fill="#1a1b26" />
  <rect class="light-4" x="306" y="125" width="4" height="6" rx="0.5" fill="#1a1b26" />
  <rect class="light-5" x="316" y="125" width="4" height="6" rx="0.5" fill="#1a1b26" />
  <rect class="light-4" x="266" y="139" width="4" height="6" rx="0.5" fill="#1a1b26" />
  <rect x="276" y="139" width="4" height="6" rx="0.5" fill="#14151f" />
  <rect class="light-3" x="286" y="139" width="4" height="6" rx="0.5" fill="#1a1b26" />
  <rect class="light-5" x="296" y="139" width="4" height="6" rx="0.5" fill="#1a1b26" />
  <rect class="light-5" x="306" y="139" width="4" height="6" rx="0.5" fill="#1a1b26" />
  <rect x="316" y="139" width="4" height="6" rx="0.5" fill="#14151f" />
  <rect class="light-4" x="266" y="153" width="4" height="6" rx="0.5" fill="#1a1b26" />
  <rect class="light-3" x="276" y="153" width="4" height="6" rx="0.5" fill="#1a1b26" />
  <rect class="light-4" x="286" y="153" width="4" height="6" rx="0.5" fill="#1a1b26" />
  <rect class="light-4" x="296" y="153" width="4" height="6" rx="0.5" fill="#1a1b26" />
  <rect class="light-1" x="306" y="153" width="4" height="6" rx="0.5" fill="#1a1b26" />
  <rect class="light-3" x="316" y="153" width="4" height="6" rx="0.5" fill="#1a1b26" />
  <rect class="light-4" x="266" y="167" width="4" height="6" rx="0.5" fill="#1a1b26" />
  <rect class="light-1" x="276" y="167" width="4" height="6" rx="0.5" fill="#1a1b26" />
  <rect class="light-5" x="286" y="167" width="4" height="6" rx="0.5" fill="#1a1b26" />
  <rect class="light-4" x="296" y="167" width="4" height="6" rx="0.5" fill="#1a1b26" />
  <rect class="light-3" x="306" y="167" width="4" height="6" rx="0.5" fill="#1a1b26" />
  <rect class="light-3" x="316" y="167" width="4" height="6" rx="0.5" fill="#1a1b26" />
  <rect class="light-5" x="266" y="181" width="4" height="6" rx="0.5" fill="#1a1b26" />
  <rect class="light-5" x="276" y="181" width="4" height="6" rx="0.5" fill="#1a1b26" />
  <rect class="light-3" x="286" y="181" width="4" height="6" rx="0.5" fill="#1a1b26" />
  <rect class="light-4" x="296" y="181" width="4" height="6" rx="0.5" fill="#1a1b26" />
  <rect class="light-5" x="306" y="181" width="4" height="6" rx="0.5" fill="#1a1b26" />
  <rect class="light-3" x="316" y="181" width="4" height="6" rx="0.5" fill="#1a1b26" />
  <rect x="350" y="70" width="60" height="130" fill="#10121a" stroke="#1f2335" stroke-width="0.5" rx="2" />
  <rect class="light-2" x="356" y="80" width="4" height="6" rx="0.5" fill="#1a1b26" />
  <rect class="light-2" x="366" y="80" width="4" height="6" rx="0.5" fill="#1a1b26" />
  <rect x="376" y="80" width="4" height="6" rx="0.5" fill="#14151f" />
  <rect class="light-3" x="386" y="80" width="4" height="6" rx="0.5" fill="#1a1b26" />
  <rect class="light-5" x="396" y="80" width="4" height="6" rx="0.5" fill="#1a1b26" />
  <rect class="light-1" x="356" y="94" width="4" height="6" rx="0.5" fill="#1a1b26" />
  <rect class="light-1" x="366" y="94" width="4" height="6" rx="0.5" fill="#1a1b26" />
  <rect class="light-2" x="376" y="94" width="4" height="6" rx="0.5" fill="#1a1b26" />
  <rect class="light-1" x="386" y="94" width="4" height="6" rx="0.5" fill="#1a1b26" />
  <rect class="light-4" x="396" y="94" width="4" height="6" rx="0.5" fill="#1a1b26" />
  <rect class="light-4" x="356" y="108" width="4" height="6" rx="0.5" fill="#1a1b26" />
  <rect class="light-1" x="366" y="108" width="4" height="6" rx="0.5" fill="#1a1b26" />
  <rect x="376" y="108" width="4" height="6" rx="0.5" fill="#14151f" />
  <rect class="light-5" x="386" y="108" width="4" height="6" rx="0.5" fill="#1a1b26" />
  <rect class="light-2" x="396" y="108" width="4" height="6" rx="0.5" fill="#1a1b26" />
  <rect class="light-4" x="356" y="122" width="4" height="6" rx="0.5" fill="#1a1b26" />
  <rect class="light-2" x="366" y="122" width="4" height="6" rx="0.5" fill="#1a1b26" />
  <rect class="light-2" x="376" y="122" width="4" height="6" rx="0.5" fill="#1a1b26" />
  <rect class="light-5" x="386" y="122" width="4" height="6" rx="0.5" fill="#1a1b26" />
  <rect class="light-4" x="396" y="122" width="4" height="6" rx="0.5" fill="#1a1b26" />
  <rect class="light-3" x="356" y="136" width="4" height="6" rx="0.5" fill="#1a1b26" />
  <rect class="light-1" x="366" y="136" width="4" height="6" rx="0.5" fill="#1a1b26" />
  <rect class="light-1" x="376" y="136" width="4" height="6" rx="0.5" fill="#1a1b26" />
  <rect class="light-1" x="386" y="136" width="4" height="6" rx="0.5" fill="#1a1b26" />
  <rect class="light-5" x="396" y="136" width="4" height="6" rx="0.5" fill="#1a1b26" />
  <rect x="356" y="150" width="4" height="6" rx="0.5" fill="#14151f" />
  <rect class="light-3" x="366" y="150" width="4" height="6" rx="0.5" fill="#1a1b26" />
  <rect x="376" y="150" width="4" height="6" rx="0.5" fill="#14151f" />
  <rect class="light-1" x="386" y="150" width="4" height="6" rx="0.5" fill="#1a1b26" />
  <rect x="396" y="150" width="4" height="6" rx="0.5" fill="#14151f" />
  <rect class="light-3" x="356" y="164" width="4" height="6" rx="0.5" fill="#1a1b26" />
  <rect class="light-1" x="366" y="164" width="4" height="6" rx="0.5" fill="#1a1b26" />
  <rect x="376" y="164" width="4" height="6" rx="0.5" fill="#14151f" />
  <rect class="light-2" x="386" y="164" width="4" height="6" rx="0.5" fill="#1a1b26" />
  <rect class="light-3" x="396" y="164" width="4" height="6" rx="0.5" fill="#1a1b26" />
  <rect class="light-3" x="356" y="178" width="4" height="6" rx="0.5" fill="#1a1b26" />
  <rect class="light-1" x="366" y="178" width="4" height="6" rx="0.5" fill="#1a1b26" />
  <rect class="light-5" x="376" y="178" width="4" height="6" rx="0.5" fill="#1a1b26" />
  <rect x="386" y="178" width="4" height="6" rx="0.5" fill="#14151f" />
  <rect class="light-3" x="396" y="178" width="4" height="6" rx="0.5" fill="#1a1b26" />
  <line x1="452" y1="50" x2="452" y2="38" stroke="#ff0055" stroke-width="1" opacity="0.6" />
  <circle class="beacon" cx="452" cy="38" r="1.5" />
  <rect x="425" y="50" width="55" height="150" fill="#10121a" stroke="#1f2335" stroke-width="0.5" rx="2" />
  <rect class="light-5" x="431" y="60" width="4" height="6" rx="0.5" fill="#1a1b26" />
  <rect class="light-1" x="441" y="60" width="4" height="6" rx="0.5" fill="#1a1b26" />
  <rect x="451" y="60" width="4" height="6" rx="0.5" fill="#14151f" />
  <rect class="light-3" x="461" y="60" width="4" height="6" rx="0.5" fill="#1a1b26" />
  <rect class="light-3" x="431" y="74" width="4" height="6" rx="0.5" fill="#1a1b26" />
  <rect class="light-5" x="441" y="74" width="4" height="6" rx="0.5" fill="#1a1b26" />
  <rect class="light-2" x="451" y="74" width="4" height="6" rx="0.5" fill="#1a1b26" />
  <rect class="light-1" x="461" y="74" width="4" height="6" rx="0.5" fill="#1a1b26" />
  <rect class="light-5" x="431" y="88" width="4" height="6" rx="0.5" fill="#1a1b26" />
  <rect x="441" y="88" width="4" height="6" rx="0.5" fill="#14151f" />
  <rect class="light-2" x="451" y="88" width="4" height="6" rx="0.5" fill="#1a1b26" />
  <rect class="light-1" x="461" y="88" width="4" height="6" rx="0.5" fill="#1a1b26" />
  <rect class="light-3" x="431" y="102" width="4" height="6" rx="0.5" fill="#1a1b26" />
  <rect class="light-5" x="441" y="102" width="4" height="6" rx="0.5" fill="#1a1b26" />
  <rect class="light-5" x="451" y="102" width="4" height="6" rx="0.5" fill="#1a1b26" />
  <rect x="461" y="102" width="4" height="6" rx="0.5" fill="#14151f" />
  <rect class="light-3" x="431" y="116" width="4" height="6" rx="0.5" fill="#1a1b26" />
  <rect class="light-4" x="441" y="116" width="4" height="6" rx="0.5" fill="#1a1b26" />
  <rect class="light-5" x="451" y="116" width="4" height="6" rx="0.5" fill="#1a1b26" />
  <rect class="light-5" x="461" y="116" width="4" height="6" rx="0.5" fill="#1a1b26" />
  <rect class="light-4" x="431" y="130" width="4" height="6" rx="0.5" fill="#1a1b26" />
  <rect class="light-2" x="441" y="130" width="4" height="6" rx="0.5" fill="#1a1b26" />
  <rect x="451" y="130" width="4" height="6" rx="0.5" fill="#14151f" />
  <rect x="461" y="130" width="4" height="6" rx="0.5" fill="#14151f" />
  <rect class="light-1" x="431" y="144" width="4" height="6" rx="0.5" fill="#1a1b26" />
  <rect class="light-5" x="441" y="144" width="4" height="6" rx="0.5" fill="#1a1b26" />
  <rect class="light-1" x="451" y="144" width="4" height="6" rx="0.5" fill="#1a1b26" />
  <rect class="light-5" x="461" y="144" width="4" height="6" rx="0.5" fill="#1a1b26" />
  <rect class="light-2" x="431" y="158" width="4" height="6" rx="0.5" fill="#1a1b26" />
  <rect class="light-2" x="441" y="158" width="4" height="6" rx="0.5" fill="#1a1b26" />
  <rect class="light-2" x="451" y="158" width="4" height="6" rx="0.5" fill="#1a1b26" />
  <rect class="light-2" x="461" y="158" width="4" height="6" rx="0.5" fill="#1a1b26" />
  <rect x="431" y="172" width="4" height="6" rx="0.5" fill="#14151f" />
  <rect x="441" y="172" width="4" height="6" rx="0.5" fill="#14151f" />
  <rect class="light-4" x="451" y="172" width="4" height="6" rx="0.5" fill="#1a1b26" />
  <rect class="light-3" x="461" y="172" width="4" height="6" rx="0.5" fill="#1a1b26" />
</svg>